# xmcd
#
# Track frame offsets:
#	150
#	15468
#	33263
#	51007
#
# Disc length: 906 seconds
#
# Revision: 0
# Processed by: cddbd v1.5.1PL0 Copyright (c) Steve Scherf et al.
# Submitted via: dBpowerAMP V4.0
#
DISCID=23038804
DTITLE=Merle Jagger - Imaginary Western (Sampler from upcoming album)
DYEAR=1900
DGENRE=
TTITLE0=Hillbilly No. 9
TTITLE1=Papa Tooth
TTITLE2=Swing House
TTITLE3=Ranchero
EXTD=
EXTT0=
EXTT1=
EXTT2=
EXTT3=
PLAYORDER=
